<svg xmlns="http://www.w3.org/2000/svg" viewBox="0 0 512 512">
  <rect width="512" height="512" rx="110" fill="#0B0C0E" stroke="#282A30" stroke-width="6"/>
  <svg x="86" y="86" width="340" height="340" viewBox="40 40 238 178" preserveAspectRatio="xMidYMid meet">
    <path d="M 60.393 46.214 C 61.175 50.126, 64.763 55.552, 67.492 56.950 C 68.629 57.533, 84.461 58.411, 104 58.975 C 137.938 59.955, 151.474 61.074, 153.465 63.065 C 154.555 64.155, 155.224 87.301, 154.150 86.792 C 153.792 86.622, 150.350 84.863, 146.500 82.882 C 134.292 76.602, 126.721 74.542, 116 74.584 C 107.743 74.616, 105.014 75.115, 95.148 78.394 C 71.671 86.196, 57.290 95.637, 50.814 107.500 C 37.868 131.215, 39.847 154.167, 56.233 170.334 C 74.609 188.466, 97.047 189.724, 132.737 174.625 C 136.167 173.173, 142.242 169.990, 146.237 167.550 L 153.500 163.114 154.208 166.807 C 154.597 168.838, 154.895 177.188, 154.870 185.362 C 154.845 193.536, 155.201 200.595, 155.662 201.048 C 156.123 201.502, 162.312 204.151, 169.416 206.936 C 183.223 212.349, 187.997 213.200, 188.004 210.250 C 188.006 209.287, 188.190 195.675, 188.412 180 C 188.634 164.325, 188.857 144.397, 188.908 135.716 L 189 119.931 195.793 113.138 C 212.112 96.819, 230.153 94.200, 238.716 106.906 C 243.469 113.960, 244.275 123.518, 240.880 132.591 C 237.766 140.913, 227.653 150.904, 217.678 155.513 C 213.517 157.436, 209.813 159.493, 209.447 160.086 C 208.699 161.296, 214.175 169.645, 220.221 176.514 C 223.937 180.735, 224.467 181.006, 227.857 180.409 C 233.379 179.438, 243.869 175.099, 249.779 171.343 C 257.509 166.430, 263.450 160.595, 267.799 153.643 C 273.267 144.905, 275.130 139.574, 275.732 130.950 C 276.676 117.408, 271.576 105.436, 259.989 93.996 C 242.734 76.961, 221.479 73.508, 198.369 83.987 C 194.714 85.644, 191.111 87, 190.362 87 C 189.283 87, 189 84.327, 189 74.157 L 189 61.315 206.250 60.660 C 215.738 60.301, 235.762 60.005, 250.750 60.003 L 278 60 278 51.500 L 278 43 168.875 43 L 59.750 43 60.393 46.214 M 118.142 94.466 C 103.140 98.095, 84.591 111.004, 79.538 121.332 C 72.376 135.972, 75.319 151.687, 86.165 156.706 C 98.797 162.552, 113.177 158.638, 132.964 143.967 C 153.082 129.050, 159.605 117.079, 153.965 105.427 C 149.093 95.363, 133.791 90.681, 118.142 94.466" fill="#FFFFFF" fill-rule="evenodd" stroke="none"/>
  </svg>
</svg>