<svg xmlns="http://www.w3.org/2000/svg" width="1432" height="150" viewBox="0 0 1432 150" fill="none"><path d="M1365.47 150C1351.74 150 1339.76 148.204 1329.54 144.611C1319.4 141.019 1311.46 135.663 1305.74 128.543C1300.1 121.424 1297.13 112.606 1296.82 102.09H1331.6C1332.06 106.924 1333.74 111.006 1336.63 114.337C1339.53 117.603 1343.42 120.052 1348.3 121.685C1353.19 123.318 1358.79 124.135 1365.12 124.135C1371.22 124.135 1376.53 123.383 1381.03 121.881C1385.6 120.379 1389.11 118.289 1391.55 115.611C1394.07 112.867 1395.33 109.7 1395.33 106.107C1395.33 102.841 1394.18 100.098 1391.89 97.8772C1389.68 95.6564 1386.4 93.7622 1382.06 92.1946C1377.78 90.627 1372.56 89.2227 1366.38 87.9817L1347.73 84.0627C1333.39 81.1234 1322.07 76.4533 1313.75 70.0522C1305.44 63.5859 1301.28 54.9641 1301.28 44.1868C1301.28 35.369 1304.07 27.6617 1309.63 21.0647C1315.28 14.4024 1322.94 9.24232 1332.63 5.58458C1342.39 1.86153 1353.49 0 1365.92 0C1378.58 0 1389.61 1.86153 1398.99 5.58458C1408.45 9.30764 1415.81 14.4677 1421.07 21.0647C1426.41 27.6617 1429.15 35.2711 1429.31 43.8929H1394.64C1394.03 38.2103 1391.17 33.7688 1386.06 30.5683C1381.03 27.3677 1374.2 25.7675 1365.58 25.7675C1359.78 25.7675 1354.83 26.486 1350.71 27.9229C1346.66 29.2946 1343.58 31.2214 1341.44 33.7035C1339.3 36.1855 1338.24 39.0268 1338.24 42.2273C1338.24 45.6238 1339.46 48.4977 1341.9 50.8491C1344.34 53.1352 1347.58 55.0294 1351.62 56.5317C1355.74 57.9687 1360.24 59.177 1365.12 60.1568L1380.34 63.3899C1387.74 64.8269 1394.56 66.7537 1400.82 69.1705C1407.07 71.5219 1412.49 74.4285 1417.06 77.8903C1421.72 81.352 1425.3 85.4344 1427.82 90.1372C1430.34 94.7747 1431.59 100.131 1431.59 106.205C1431.59 115.153 1428.96 122.926 1423.7 129.523C1418.51 136.055 1411 141.117 1401.16 144.709C1391.32 148.236 1379.42 150 1365.47 150Z" fill="white"></path><path d="M1149.17 27.4325V1.95898H1289.21V27.4325H1237.04V147.942H1201.46V27.4325H1149.17Z" fill="white"></path><path d="M1135.63 1.95898V147.942H1099.71V1.95898H1135.63Z" fill="white"></path><path d="M789.438 147.942V1.95898H904.304V27.4325H825.362V61.7238H898.355V86.7075H825.362V122.468H904.533V147.942H789.438Z" fill="white"></path><path d="M575.144 1.95898H615.531L654.43 64.859H656.032L694.931 1.95898H735.317L673.193 96.4071V147.942H637.383V96.4071L575.144 1.95898Z" fill="white"></path><path d="M430.243 27.4325V1.95898H570.28V27.4325H518.109V147.942H482.528V27.4325H430.243Z" fill="white"></path><path d="M356.504 150C342.775 150 330.8 148.204 320.579 144.611C310.435 141.019 302.503 135.663 296.782 128.543C291.138 121.424 288.163 112.606 287.858 102.09H322.639C323.096 106.924 324.774 111.006 327.673 114.337C330.571 117.603 334.461 120.052 339.343 121.685C344.224 123.318 349.83 124.135 356.161 124.135C362.263 124.135 367.563 123.383 372.064 121.881C376.64 120.379 380.149 118.289 382.589 115.611C385.106 112.867 386.365 109.7 386.365 106.107C386.365 102.841 385.221 100.098 382.932 97.8772C380.721 95.6564 377.441 93.7622 373.093 92.1946C368.822 90.627 363.597 89.2227 357.419 87.9817L338.771 84.0627C324.431 81.1234 313.105 76.4533 304.791 70.0522C296.477 63.5859 292.32 54.9641 292.32 44.1868C292.32 35.369 295.104 27.6617 300.672 21.0647C306.316 14.4024 313.982 9.24232 323.668 5.58458C333.431 1.86153 344.529 0 356.962 0C369.623 0 380.644 1.86153 390.026 5.58458C399.484 9.30764 406.844 14.4677 412.107 21.0647C417.446 27.6617 420.192 35.2711 420.344 43.8929H385.678C385.068 38.2103 382.208 33.7688 377.098 30.5683C372.064 27.3677 365.237 25.7675 356.618 25.7675C350.822 25.7675 345.864 26.486 341.745 27.9229C337.703 29.2946 334.614 31.2214 332.478 33.7035C330.342 36.1855 329.275 39.0268 329.275 42.2273C329.275 45.6238 330.495 48.4977 332.936 50.8491C335.376 53.1352 338.618 55.0294 342.66 56.5317C346.779 57.9687 351.279 59.177 356.161 60.1568L371.377 63.3899C378.776 64.8269 385.602 66.7537 391.856 69.1705C398.111 71.5219 403.526 74.4285 408.103 77.8903C412.755 81.352 416.34 85.4344 418.857 90.1372C421.374 94.7747 422.632 100.131 422.632 106.205C422.632 115.153 420.001 122.926 414.738 129.523C409.552 136.055 402.039 141.117 392.2 144.709C382.36 148.236 370.462 150 356.504 150Z" fill="white"></path><path d="M161.376 147.942H122.82L181.627 1.95898H228.077L286.769 147.942H248.327L205.538 35.2705H204.165L161.376 147.942ZM159.088 90.5285H250.272V114.63H159.088V90.5285Z" fill="white"></path><path d="M0 27.4325V1.95898H140.037V27.4325H87.8663V147.942H52.285V27.4325H0Z" fill="white"></path><path d="M1074.38 80.1377C1074.64 91.4122 1073.22 102.663 1070.16 113.518C1067.82 121.593 1063.36 128.896 1057.25 134.673C1050.9 140.3 1043.25 144.252 1034.98 146.17C1024.08 148.697 1012.91 149.882 1001.72 149.696C990.362 149.886 979.025 148.701 967.954 146.17C959.651 144.263 951.958 140.311 945.573 134.673C939.462 128.896 935.004 121.593 932.658 113.518C929.599 102.663 928.178 91.4122 928.442 80.1377V2.41602H968.567C975.682 2.41602 982.506 5.2424 987.537 10.2734C992.568 15.3045 995.394 22.1282 995.394 29.2432V77.1865C995.524 78.9421 996.314 80.5834 997.604 81.7812C998.894 82.9791 1000.59 83.6445 1002.35 83.6445C1004.11 83.6445 1005.81 82.9791 1007.1 81.7812C1008.39 80.5834 1009.18 78.942 1009.31 77.1865V29.2041C1009.32 19.3194 1005.71 9.77273 999.15 2.37793H1074.5L1074.38 80.1377Z" fill="#EF383B"></path><path d="M1057.32 85.6801C1058.33 85.5204 1059.36 85.5609 1060.35 85.799C1061.34 86.037 1062.28 86.4679 1063.1 87.0676C1063.26 87.1591 1063.41 87.277 1063.53 87.4154C1064.81 88.4131 1065.75 89.7888 1066.21 91.3485C1066.67 92.9083 1066.63 94.5738 1066.1 96.1093C1065.56 97.6449 1064.55 98.9741 1063.22 99.9082C1061.89 100.842 1060.3 101.335 1058.67 101.316C1057.15 101.293 1055.66 100.832 1054.39 99.9878L1053.97 99.64C1053.14 99.0403 1052.44 98.284 1051.91 97.4141C1051.38 96.5442 1051.02 95.5776 1050.86 94.5699C1050.7 93.5624 1050.74 92.5327 1050.98 91.5407C1051.22 90.5487 1051.65 89.6134 1052.25 88.788C1052.85 87.9626 1053.61 87.2633 1054.48 86.7301C1055.35 86.1971 1056.31 85.8399 1057.32 85.6801Z" fill="#B62224"></path><path d="M1057.32 85.6801C1058.33 85.5204 1059.36 85.5609 1060.35 85.799C1061.34 86.037 1062.28 86.4679 1063.1 87.0676C1063.26 87.1591 1063.41 87.277 1063.53 87.4154C1064.81 88.4131 1065.75 89.7888 1066.21 91.3485C1066.67 92.9083 1066.63 94.5738 1066.1 96.1093C1065.56 97.6449 1064.55 98.9741 1063.22 99.9082C1061.89 100.842 1060.3 101.335 1058.67 101.316C1057.15 101.293 1055.66 100.832 1054.39 99.9878L1053.97 99.64C1053.14 99.0403 1052.44 98.284 1051.91 97.4141C1051.38 96.5442 1051.02 95.5776 1050.86 94.5699C1050.7 93.5624 1050.74 92.5327 1050.98 91.5407C1051.22 90.5487 1051.65 89.6134 1052.25 88.788C1052.85 87.9626 1053.61 87.2633 1054.48 86.7301C1055.35 86.1971 1056.31 85.8399 1057.32 85.6801Z" stroke="#B62224"></path><path d="M999.798 130.481C1021.85 132.934 1036.07 127.439 1048.56 113.042" stroke="#B62224" stroke-width="16.2317" stroke-linecap="round"></path></svg>